<svg xmlns="http://www.w3.org/2000/svg" width="76" height="100" viewBox="0 0 76 100">
  <g fill="none" fill-rule="evenodd" transform="translate(3 -1)">
    <path fill="#333" fill-rule="nonzero" d="M33.953 1C38.628 1.058 41.604 4.802 40.587 9.362 39.569 13.921 34.947 17.56 30.27 17.501 25.598 17.442 22.63 13.709 23.648 9.15 24.665 4.593 29.284.943 33.953 1zM65.451 100.955L43.8 55.501C43.811 55.455 43.834 55.412 43.843 55.366L49.77 28.826C51.074 22.983 46.651 19.606 40.773 19.533L19.793 19.272C13.912 19.2 8.012 22.448 6.707 28.291L.781 54.831C.343 56.793 1.622 58.403 3.635 58.428 5.648 58.454 7.635 56.886 8.073 54.923L13.436 30.92 16.453 30.958 1.921 96.05C1.346 98.622 3.016 100.73 5.656 100.765 8.298 100.794 10.908 98.74 11.482 96.169L20.483 55.856 23.798 55.898 14.798 96.211C14.224 98.782 15.899 100.889 18.538 100.923 21.179 100.957 23.78 98.902 24.355 96.33L30.878 67.113 46.947 100.957 65.451 100.957 65.451 100.955 65.451 100.955zM41.9 31.272L38.828 45.062 36.766 40.737 38.888 31.234 41.9 31.272zM35.613 45.899L37.675 50.228 36.552 55.274C36.112 57.236 37.392 58.846 39.404 58.872 40.14 58.881 40.871 58.672 41.528 58.313L60.286 97.691 49.009 97.691 32.033 61.94 35.613 45.899z" transform="translate(7)"/>
    <path fill="#999" stroke="#333" stroke-linejoin="round" stroke-width="3" d="M8.9694265,68.163479 L-1.61298359,54.1439125 L4.00877286,28.5 L30.8644571,28.5 L25.140076,54.6120397 L8.9694265,68.163479 Z"/>
  </g>
</svg>
