<svg xmlns="http://www.w3.org/2000/svg" width="359" height="100" viewBox="0 0 359 100">
  <g fill="none" fill-rule="evenodd" transform="translate(0 -1)">
    <g transform="translate(145)">
      <path fill="#333" fill-rule="nonzero" d="M33.953 1C38.628 1.058 41.604 4.802 40.587 9.362 39.569 13.921 34.947 17.56 30.27 17.501 25.598 17.442 22.63 13.709 23.648 9.15 24.665 4.593 29.284.943 33.953 1zM65.451 100.955L43.8 55.501C43.811 55.455 43.834 55.412 43.843 55.366L49.77 28.826C51.074 22.983 46.651 19.606 40.773 19.533L19.793 19.272C13.912 19.2 8.012 22.448 6.707 28.291L.781 54.831C.343 56.793 1.622 58.403 3.635 58.428 5.648 58.454 7.635 56.886 8.073 54.923L13.436 30.92 16.453 30.958 1.921 96.05C1.346 98.622 3.016 100.73 5.656 100.765 8.298 100.794 10.908 98.74 11.482 96.169L20.483 55.856 23.798 55.898 14.798 96.211C14.224 98.782 15.899 100.889 18.538 100.923 21.179 100.957 23.78 98.902 24.355 96.33L30.878 67.113 46.947 100.957 65.451 100.957 65.451 100.955 65.451 100.955zM41.9 31.272L38.828 45.062 36.766 40.737 38.888 31.234 41.9 31.272zM35.613 45.899L37.675 50.228 36.552 55.274C36.112 57.236 37.392 58.846 39.404 58.872 40.14 58.881 40.871 58.672 41.528 58.313L60.286 97.691 49.009 97.691 32.033 61.94 35.613 45.899z" transform="translate(9)"/>
      <path fill="#999" stroke="#333" stroke-width="3" d="M8.9694265,68.163479 L-1.61298359,54.1439125 L4.00877286,28.5 L30.8644571,28.5 L25.140076,54.6120397 L8.9694265,68.163479 Z"/>
    </g>
    <path fill="#333" fill-rule="nonzero" d="M25.272,17.424 C25.272,18.3306712 24.6404878,19.4621051 23.3774455,20.8183323 L23.148,21.06 C21.81066,22.4426736 21.1048511,23.8788456 21.0305555,25.3685544 L21.024,25.632 C21.024,26.4960043 20.3760065,26.928 19.08,26.928 C17.5439923,26.928 16.5960018,26.1960073 16.236,24.732 C15.8759982,23.2679927 15.3600034,22.536 14.688,22.536 C13.9679964,22.536 13.608,23.5199902 13.608,25.488 L13.6149999,25.8510007 C13.6336665,26.3710005 13.6896661,27.0349967 13.7829997,27.8429979 L13.9370003,29.1070021 C14.0420006,30.0100036 14.0997501,30.7172486 14.11025,31.2287495 L14.112,31.392 C14.112,36.4320252 13.6560046,39.4799947 12.744,40.536 C13.0632016,41.2200034 14.1404911,41.7740384 15.9758986,42.1981197 L16.272,42.264 C18.0960091,42.6480019 19.008,43.3919945 19.008,44.496 C19.008,45.696006 18.408006,46.5599974 17.208,47.088 L16.2568858,47.4986679 C15.2696251,47.934224 14.7106673,48.2173327 14.58,48.348 C14.4119992,48.5160008 14.2080012,49.4399916 13.968,51.12 C13.7279988,52.4160065 13.1520046,53.064 12.24,53.064 C11.4092266,53.064 9.69090012,52.2873805 7.08497188,50.7341192 L6.768,50.544 C4.8479904,49.3919942 2.95200936,48.2400058 1.08,47.088 C0.98399952,46.8479988 0.936,46.5600017 0.936,46.224 C0.936,45.7919978 1.22399712,45.276003 1.8,44.676 L2.09038118,44.3689577 C2.49024972,43.9387421 2.72945415,43.6450917 2.808,43.488 C3.41309393,42.2312664 3.72480459,39.1466025 3.7431405,34.2339196 L3.7383576,32.0414037 C3.70920519,27.7972505 3.56708699,25.2288045 3.312,24.336 C3.22239955,23.9775982 2.71467121,23.462403 1.78880091,22.7904006 L1.584,22.644 C0.52799472,21.8999963 2.84217094e-14,21.2400029 2.84217094e-14,20.664 C2.84217094e-14,20.2751981 0.223557764,19.8475217 0.670679329,19.3809606 L0.828,19.224 C1.38000276,18.6959974 1.99199664,17.3040113 2.664,15.048 C3.19200264,13.3199914 3.9359952,12.456 4.896,12.456 C8.44801776,12.456 11.2319899,14.0159844 13.248,17.136 C14.1063572,17.0456466 14.7946279,16.391923 15.3128301,15.1748108 L15.408,14.94 C15.9360026,13.5719932 16.5359966,12.888 17.208,12.888 C18.0744043,12.888 19.5364404,13.386175 21.5941485,14.3825393 L21.924,14.544 C24.1560112,15.6480055 25.272,16.6079959 25.272,17.424 Z M51.528,26.856 C51.5741541,27.9636978 50.488662,29.1379471 48.2714924,30.3787804 L46.6112412,31.3059926 C43.8828256,32.8443942 42.1846081,33.8676952 41.5165539,34.3759164 L41.376,34.488 C38.9279878,36.3600094 37.704,38.5679873 37.704,41.112 C38.5200041,41.6400026 39.6479928,41.9519995 41.088,42.048 L44.688,42.192 C44.9760014,41.9039986 45.215999,40.8720089 45.408,39.096 C45.5040005,37.6559928 46.0799947,36.936 47.136,36.936 C48.9600091,36.8879998 49.8959998,37.9439892 49.944,40.104 C49.9920002,43.1760154 48.0720194,46.2959842 44.184,49.464 L44.184,49.968 C44.184,51.6960086 43.5360065,52.5839998 42.24,52.632 C41.039994,52.632 38.1960224,51.6840095 33.708,49.788 L32.6870066,49.3503887 C28.8796513,47.69307 26.976,46.5549505 26.976,45.936 C26.976,45.4607976 27.1898379,44.8981225 27.6175194,44.2479608 L27.768,44.028 C28.2432024,43.3583967 28.5240003,42.8151611 28.6104,42.3982804 L28.632,42.264 C28.7760007,41.3519954 28.8240002,39.192017 28.776,35.784 L28.776,29.376 C28.776,26.6399863 28.5840019,24.5280074 28.2,23.04 C28.1519998,22.7519986 27.924002,22.3560025 27.516,21.852 C27.107998,21.3479975 26.904,20.88 26.904,20.448 C26.904,20.2079988 26.9519995,20.0400005 27.048,19.944 C27.6240029,19.2239964 28.9439897,18.6000026 31.008,18.072 L32.7814652,17.5670459 C34.7462925,16.9937676 36.1231304,16.5380886 36.912,16.2 C39.1680113,15.191995 40.8719942,13.7520094 42.024,11.88 C43.1760058,11.88 45.0719868,14.1599772 47.712,18.72 L48.3441204,19.825977 C50.4229515,23.5060863 51.4842351,25.8494067 51.528,26.856 Z M40.16,28.368 C40.16,27.5519959 39.9200024,26.4720067 39.44,25.128 C38.8159969,23.5919923 38.1440036,22.5840024 37.424,22.104 L37.424,28.368 C37.424,29.2800046 37.7119971,29.9999974 38.288,30.528 C39.296005,29.9039969 39.9199988,29.1840041 40.16,28.368 Z M82.416,43.704 C82.416,44.5653376 81.7951914,45.5658098 80.5535566,46.7054436 L80.328,46.908 C78.935993,48.1320061 78.24,49.247995 78.24,50.256 C78.24,50.3760006 78.2816663,50.5543324 78.3649998,50.7909995 L78.42,50.94 C78.5400006,51.2520016 78.6,51.503999 78.6,51.696 C78.6,52.3200031 78.0480055,52.632 76.944,52.632 C74.6879887,52.632 72.7440082,51.8160082 71.112,50.184 C69.4799918,48.5519918 68.2800038,47.736 67.512,47.736 L66,48.24 L66.3063499,49.6927682 C66.4861172,50.576048 66.576,51.0997887 66.576,51.264 C66.576,51.6960022 66.2640031,52.0319988 65.64,52.272 C65.0159969,52.5120012 64.4640024,52.632 63.984,52.632 C62.8895945,52.632 61.4269883,51.9822065 59.5961413,50.682601 L59.304,50.472 C57.1919894,48.9359923 55.440007,48.0480012 54.048,47.808 C53.1839957,47.6639993 52.752,47.0640053 52.752,46.008 C52.752,45.1919959 53.0399971,44.7360005 53.616,44.64 C55.1081217,44.2203408 55.8754878,41.9209089 55.9181192,37.7416377 L55.92,37.368 C55.92,36.5039957 55.8908403,35.4358851 55.8325201,34.1636416 L55.7099792,31.5312658 C55.7059931,31.4243044 55.704,31.3538825 55.704,31.32 C56.5680043,30.7743131 58.1535847,30.2824838 60.460785,29.8444989 L61.6218645,29.6276006 C63.7296823,29.2173393 65.2130483,28.7974758 66.072,28.368 C67.7040082,27.4559954 68.52,26.0160098 68.52,24.048 C68.52,22.7039933 67.9680055,21.6240041 66.864,20.808 C65.7599945,19.9919959 64.5360067,19.584 63.192,19.584 C61.6079921,19.584 60.816,20.1599942 60.816,21.312 C60.816,21.6270016 61.3538852,22.0474664 62.4296709,22.5734058 L62.652,22.68 C63.8760061,23.2560029 64.488,24.0959945 64.488,25.2 C64.488,26.208005 64.092004,27.011997 63.3,27.612 C62.507996,28.212003 61.5840053,28.512 60.528,28.512 C59.2319935,28.512 58.0920049,27.9720054 57.108,26.892 C56.1239951,25.8119946 55.632,24.6000067 55.632,23.256 C55.632,21.8159928 56.0999953,20.3160078 57.036,18.756 C57.9720047,17.1959922 59.0879935,16.3440007 60.384,16.2 C61.4266719,16.1093329 62.5442542,15.3764512 63.7367769,14.0013345 L63.948,13.752 C65.2200064,12.2159923 66.3839947,11.448 67.44,11.448 C67.9200024,11.448 69.6719849,12.2399921 72.696,13.824 L78.6,16.848 C79.3200036,17.1840017 79.68,17.8319952 79.68,18.792 L79.6736178,19.3025832 C79.6395793,20.7322137 79.4693866,22.706448 79.1630363,25.2253275 L79.104,25.704 C78.7199981,28.7760154 78.528,31.1039921 78.528,32.688 L78.5316562,33.4864723 C78.5682184,37.3761749 78.8789971,39.725996 79.464,40.536 C79.5120002,40.6320005 80.1119942,40.9439974 81.264,41.472 C82.0320038,41.8080017 82.416,42.5519942 82.416,43.704 Z M68.952,39.24 L68.9475,39.0689998 C68.9265002,38.6070002 68.8320008,37.7040067 68.664,36.36 C68.5199993,35.2079942 68.5199993,34.2480038 68.664,33.48 C68.4239988,32.9039971 68.0400026,32.616 67.512,32.616 C66.7919964,32.616 66.0480038,33.0479957 65.28,33.912 C65.5680014,34.4880029 65.712,35.1119966 65.712,35.784 C65.712,36.1680019 65.6582405,36.7055977 65.5507203,37.3967984 L65.46,37.944 C65.2919992,38.9040048 65.208,39.6479974 65.208,40.176 C65.208,41.616 65.8799933,42.336 67.224,42.336 C68.3760058,42.336 68.952,41.3040103 68.952,39.24 Z M107.752,23.976 C107.752,24.2160012 106.888009,25.0799926 105.16,26.568 L104.451566,27.1584295 C102.972545,28.4051624 102.128697,29.2163459 101.92,29.592 C100.575993,29.3519988 99.3760053,28.3920084 98.32,26.712 C97.5039959,25.319993 96.6640043,23.9520067 95.8,22.608 L95.224,23.256 L95.229625,23.7510013 C95.2521248,24.795002 95.3421242,26.1629928 95.4996247,27.8549968 L95.6683753,29.5998782 C95.8521259,31.5686329 95.944,33.0779947 95.944,34.128 C95.944,34.8480036 95.8240012,35.9279928 95.584,37.368 C95.3439988,38.8080072 95.224,39.8879964 95.224,40.608 C95.224,42.0960074 96.8319839,42.84 100.048,42.84 C101.344006,42.84 102.099999,42.7200012 102.316,42.48 C102.532001,42.2399988 102.64,41.4480067 102.64,40.104 C102.64,39.6719978 102.747999,39.1320032 102.964,38.484 C103.180001,37.8359968 103.455998,37.512 103.792,37.512 C104.752005,37.512 105.591996,37.8359968 106.312,38.484 C107.032004,39.1320032 107.392,39.9359952 107.392,40.896 C107.392,42.5280082 106.768006,44.0159933 105.52,45.36 L102.064,48.24 C100.911994,49.3440055 100.431999,50.4719942 100.624,51.624 C99.7119954,52.2960034 98.752005,52.632 97.744,52.632 C97.0689966,52.632 94.9385485,51.9148197 91.352597,50.4804388 L90.616,50.184 C86.5839798,48.5519918 84.4000017,47.4960024 84.064,47.016 C85.1238453,44.3433466 85.6749572,40.6975319 85.7173504,36.0784538 L85.7184132,34.4444912 C85.7020167,29.12511 85.5585468,25.5636454 85.288,23.76 C85.2447998,23.4143983 85.016922,22.9813221 84.6043606,22.4607607 L84.46,22.284 C83.9559975,21.683997 83.704,21.1920019 83.704,20.808 C83.704,20.5679988 83.7519995,20.3040014 83.848,20.016 L91.624,16.992 C94.6960154,15.7439938 96.9039933,14.1360098 98.248,12.168 C99.5008063,12.3072007 101.325469,13.8816917 103.722039,16.8915185 L103.972,17.208 C106.492013,20.4240161 107.752,22.6799935 107.752,23.976 Z M132.512,12.816 C132.512,13.6710043 132.005755,14.6736513 130.993251,15.8239678 L130.784,16.056 C129.631994,17.3040062 129.056,18.3359959 129.056,19.152 C129.056,19.6320024 129.175999,20.1119976 129.416,20.592 C129.416,21.3120036 128.504009,21.6000007 126.68,21.456 C125.863996,20.7359964 125.024004,20.376 124.16,20.376 C123.439996,20.376 123.08,20.5919978 123.08,21.024 L123.098662,22.6735469 C123.120781,23.9220039 123.16256,25.6521489 123.224,27.864 L123.24704,29.4969646 C123.26432,31.0636859 123.26432,32.4316788 123.24704,33.600958 L123.224,34.704 C123.176,37.2000125 123.008001,39.4799897 122.72,41.544 L126.608,42.408 C128.480009,42.8400022 129.44,43.4399962 129.488,44.208 C129.533177,45.1115339 129.025611,46.2063888 127.965288,47.4925941 L127.76,47.736 C126.559994,49.128007 125.96,50.2559957 125.96,51.12 L125.96,52.344 C125.864,52.536001 125.264006,52.632 124.16,52.632 C123.391996,52.632 121.172018,51.6840095 117.5,49.788 L116.542277,49.2890558 C113.495654,47.6864057 111.90691,46.6887292 111.776,46.296 C112.976006,40.7759724 113.576,34.6800334 113.576,28.008 C113.576,25.6559882 113.504001,23.3040118 113.36,20.952 C113.167999,20.8079993 112.304008,20.5200022 110.768,20.088 C109.855995,19.7999986 109.4,19.1040055 109.4,18 C109.4,15.7439887 109.999994,14.616 111.2,14.616 L111.615812,14.6125917 C112.328145,14.6000948 112.765538,14.5532312 112.928,14.472 C113.456003,14.1839986 113.72,13.440006 113.72,12.24 C113.72,11.3931386 113.440635,10.2669245 112.881899,8.86132791 L112.748,8.532 C112.099997,6.9719922 111.776,5.76000432 111.776,4.896 C111.776,4.4159976 112.375994,4.176 113.576,4.176 C114.094403,4.176 114.700277,4.37039806 115.393639,4.75919942 L115.628,4.896 C116.420004,5.3760024 117.007998,5.616 117.392,5.616 L119.876,2.808 C121.532008,0.93599064 122.983994,-2.84217094e-14 124.232,-2.84217094e-14 C124.808003,-2.84217094e-14 125.671994,0.52799472 126.824,1.584 C126.65221,2.44295166 126.000094,3.68615388 124.867636,5.31363761 L124.448,5.904 C123.199994,7.63200864 122.576,9.11999376 122.576,10.368 L122.579375,10.9350022 C122.595125,12.1950056 122.665999,13.0139981 122.792,13.392 C123.080001,14.400005 123.823994,14.904 125.024,14.904 C126.128006,14.904 127.147995,14.1480076 128.084,12.636 C129.020005,11.1239924 129.727998,10.368 130.208,10.368 C130.784003,10.368 131.311998,10.6439972 131.792,11.196 C132.272002,11.7480028 132.512,12.2879974 132.512,12.816 Z" transform="translate(0 35)"/>
    <path fill="#333" fill-rule="nonzero" d="M26.64,48.528 C26.64,49.0560026 26.2320041,49.4399988 25.416,49.68 L20.304,51.048 L20.304,51.048 C18.5759914,51.5760026 16.9680074,52.2959954 15.48,53.208 L15.48,55.584 C15.48,56.8800065 15.0720041,57.528 14.256,57.528 C12.9119933,57.528 10.8000144,56.7120082 7.92,55.08 C4.84798464,53.3039911 2.5920072,52.320001 1.152,52.128 C0.71999784,51.6959978 0.504,51.1920029 0.504,50.616 C0.504,50.1407976 0.698398056,49.5392429 1.08719942,48.8113209 L1.224,48.564 C1.65600216,47.8079962 1.91304024,47.1978012 1.99512001,46.7334005 L2.016,46.584 C2.06400024,46.1039976 2.088,41.5200434 2.088,32.832 C2.088,31.7177087 1.89141013,30.2516405 1.49822491,28.4337569 L1.0631865,26.5196204 C0.847853031,25.5956197 0.733854037,25.1516239 0.721187489,25.1876249 L0.72,25.2 C0.72,24.5759969 2.20798512,23.8080046 5.184,22.896 C8.35201584,21.887995 10.1519978,20.880005 10.584,19.872 L10.048406,18.9429758 C8.61574877,16.4817436 7.64228829,15.0154309 7.128,14.544 C6.02399448,13.5839952 4.08001392,13.104 1.296,13.104 C0.43199568,13.104 5.68434189e-14,12.6720043 5.68434189e-14,11.808 C5.68434189e-14,10.1759918 0.76799232,9.14400216 2.304,8.712 C2.88000288,8.56799928 4.29598872,8.496 6.552,8.496 C8.28000864,8.496 9.144,7.94400552 9.144,6.84 C9.144,6.54133184 9.04918613,6.11940964 8.85955587,5.57422302 L8.784,5.364 C8.5439988,4.71599676 8.424,4.22400168 8.424,3.888 C8.424,2.97599544 8.8439958,2.1000042 9.684,1.26 C10.5240042,0.4199958 11.3999954,0 12.312,0 C12.9360031,0 13.5959965,0.1799982 14.292,0.54 C14.9880035,0.9000018 15.336,1.36799712 15.336,1.944 C15.336,2.51600286 15.1141689,3.26949604 14.6705006,4.20449895 L14.544,4.464 C14.0159974,5.52000528 13.752,6.33599712 13.752,6.912 C13.752,7.92000504 14.7959896,9.82798596 16.884,12.636 L17.3566884,13.26334 C19.210801,15.6900471 20.6252259,17.1249209 21.6,17.568 C21.8258835,18.2456504 22.5832464,19.0933658 23.8721096,20.1111687 L24.12,20.304 C25.3680062,21.2640048 25.992,22.2719947 25.992,23.328 L25.9870173,23.7948801 C25.9637649,24.9458845 25.859129,26.5282121 25.6731075,28.5418943 L25.5476247,29.8963159 C25.3638741,31.9674457 25.272,33.5699943 25.272,34.704 L25.2795937,35.4152824 C25.2947811,36.1898442 25.3327496,37.1542456 25.3934997,38.3084958 L25.5614065,41.2222539 C25.6564692,42.9577559 25.704,44.3129951 25.704,45.288 C25.704,45.6720019 25.827258,46.1508126 26.0737774,46.7244436 L26.172,46.944 C26.4840016,47.6160034 26.64,48.1439981 26.64,48.528 Z M16.2,47.52 C15.5087965,45.7689512 15.1493757,42.9783733 15.121728,39.1481878 L15.12,38.664 C15.12,35.6399849 15.2639986,31.2000293 15.552,25.344 C14.9759971,24.6239964 13.9440074,23.760005 12.456,22.752 C11.8799971,23.5200038 11.592,24.1679974 11.592,24.696 L11.6009999,25.7085008 C11.6129999,26.4584995 11.6369998,27.3584956 11.6729998,28.4084958 L11.7990002,31.7880042 C11.8485003,33.2400044 11.8753125,34.4197468 11.8794375,35.3272491 L11.88,35.568 C11.88,40.0320223 11.4000048,43.4399882 10.44,45.792 C11.9760077,46.992006 13.5599918,47.592 15.192,47.592 C15.6240022,47.592 15.9599988,47.5680002 16.2,47.52 Z M53.992,31.104 C54.0381541,32.2116978 52.952662,33.3859471 50.7354924,34.6267804 L49.0752412,35.5539926 C46.3468256,37.0923942 44.6486081,38.1156952 43.9805539,38.6239164 L43.84,38.736 C41.3919878,40.6080094 40.168,42.8159873 40.168,45.36 C40.9840041,45.8880026 42.1119928,46.1999995 43.552,46.296 L47.152,46.44 C47.4400014,46.1519986 47.679999,45.1200089 47.872,43.344 C47.9680005,41.9039928 48.5439947,41.184 49.6,41.184 C51.4240091,41.1359998 52.3599998,42.1919892 52.408,44.352 C52.4560002,47.4240154 50.5360194,50.5439842 46.648,53.712 L46.648,54.216 C46.648,55.9440086 46.0000065,56.8319998 44.704,56.88 C43.503994,56.88 40.6600224,55.9320095 36.172,54.036 L35.1510066,53.5983887 C31.3436513,51.94107 29.44,50.8029505 29.44,50.184 C29.44,49.7087976 29.6538379,49.1461225 30.0815194,48.4959608 L30.232,48.276 C30.7072024,47.6063967 30.9880003,47.0631611 31.0744,46.6462804 L31.096,46.512 C31.2400007,45.5999954 31.2880002,43.440017 31.24,40.032 L31.24,33.624 C31.24,30.8879863 31.0480019,28.7760074 30.664,27.288 C30.6159998,26.9999986 30.388002,26.6040025 29.98,26.1 C29.571998,25.5959975 29.368,25.128 29.368,24.696 C29.368,24.4559988 29.4159995,24.2880005 29.512,24.192 C30.0880029,23.4719964 31.4079897,22.8480026 33.472,22.32 L35.2454652,21.8150459 C37.2102925,21.2417676 38.5871304,20.7860886 39.376,20.448 C41.6320113,19.439995 43.3359942,18.0000094 44.488,16.128 C45.6400058,16.128 47.5359868,18.4079772 50.176,22.968 L50.8081204,24.073977 C52.8869515,27.7540863 53.9482351,30.0974067 53.992,31.104 Z M43.624,32.616 C43.624,31.7999959 43.3840024,30.7200067 42.904,29.376 C42.2799969,27.8399923 41.6080036,26.8320024 40.888,26.352 L40.888,32.616 C40.888,33.5280046 41.1759971,34.2479974 41.752,34.776 C42.760005,34.1519969 43.3839988,33.4320041 43.624,32.616 Z M79.616,28.224 C79.616,28.4640012 78.7520086,29.3279926 77.024,30.816 L76.3155662,31.4064295 C74.836545,32.6531624 73.9926967,33.4643459 73.784,33.84 C72.4399933,33.5999988 71.2400053,32.6400084 70.184,30.96 C69.3679959,29.567993 68.5280043,28.2000067 67.664,26.856 L67.088,27.504 C67.088,28.5960055 67.1798741,30.1289922 67.3636247,32.1029968 L67.5323753,33.8478782 C67.7161259,35.8166329 67.808,37.3259948 67.808,38.376 C67.808,39.0406187 67.7057525,40.0119707 67.5012547,41.2900815 L67.448,41.616 C67.2079988,43.0560072 67.088,44.1359964 67.088,44.856 C67.088,46.3440074 68.6959839,47.088 71.912,47.088 C73.2080065,47.088 73.9639989,46.9680012 74.18,46.728 C74.3960011,46.4879988 74.504,45.6960067 74.504,44.352 C74.504,43.9199978 74.6119989,43.3800032 74.828,42.732 C75.0440011,42.0839968 75.3199983,41.76 75.656,41.76 C76.6160048,41.76 77.4559964,42.0839968 78.176,42.732 C78.8960036,43.3800032 79.256,44.1839952 79.256,45.144 C79.256,46.7760082 78.6320062,48.2639933 77.384,49.608 L73.928,52.488 C72.7759942,53.5920055 72.295999,54.7199942 72.488,55.872 C71.5759954,56.5440034 70.616005,56.88 69.608,56.88 C68.9329966,56.88 66.8025485,56.1628197 63.216597,54.7284388 L62.48,54.432 C58.4479798,52.7999918 56.2640017,51.7440024 55.928,51.264 C56.9878453,48.5913466 57.5389572,44.9455319 57.5813504,40.3264538 L57.5824132,38.6924912 C57.5660167,33.37311 57.4225468,29.8116454 57.152,28.008 C57.1087998,27.6623983 56.880922,27.2293221 56.4683606,26.7087607 L56.324,26.532 C55.8199975,25.931997 55.568,25.4400019 55.568,25.056 C55.568,24.8159988 55.6159995,24.5520014 55.712,24.264 L63.488,21.24 C66.5600154,19.9919938 68.7679933,18.3840098 70.112,16.416 C71.3648063,16.5552007 73.1894686,18.1296917 75.5860388,21.1395185 L75.836,21.456 C78.3560126,24.6720161 79.616,26.9279935 79.616,28.224 Z M106.608,48.456 C105.842996,49.0860032 104.529571,49.737091 102.667689,50.4092807 L101.578664,50.7964454 C99.7582143,51.4601506 98.5066701,52.0479974 97.824,52.56 C96.4799933,53.568005 95.808,54.9599911 95.808,56.736 C94.9439957,56.928001 94.2720024,57.024 93.792,57.024 C92.2377065,57.024 90.3133709,56.2838713 88.0189403,54.8035929 L87.672,54.576 C84.9839866,52.7999911 82.9920065,51.7920012 81.696,51.552 C81.4079986,51.1199978 81.264,50.6640024 81.264,50.184 C81.264,49.6999976 81.4757479,48.9941707 81.8992495,48.0665011 L82.02,47.808 C82.5240025,46.7519947 82.776,45.9360029 82.776,45.36 L82.632,34.632 C82.632,33.7583956 82.4968014,32.5332861 82.2264005,30.9566427 L81.965437,29.5003099 C81.6898111,27.917431 81.552,26.7480038 81.552,25.992 C81.552,24.599993 82.5119904,23.5680034 84.432,22.896 C86.0160079,22.3679974 87.5999921,21.8640024 89.184,21.384 C90.0960046,20.9039976 90.8879966,19.9200074 91.56,18.432 C92.1360029,17.1839938 92.927995,16.56 93.936,16.56 C94.6755593,16.56 96.3275596,17.3945596 98.892048,19.0637028 L99.192,19.26 C101.928014,21.06 104.015993,22.055999 105.456,22.248 C105.840002,22.8240029 106.032,23.5439957 106.032,24.408 C106.032,25.0320031 105.900001,25.943994 105.636,27.144 C105.371999,28.344006 105.24,29.2559969 105.24,29.88 L105.24,39.312 C105.336,43.2960199 105.791996,46.3439894 106.608,48.456 Z M96.24,46.512 C95.8559981,45.0719928 95.664,43.2000115 95.664,40.896 L95.6669388,40.4353459 C95.675755,39.7013865 95.7044079,38.7740245 95.7528978,37.6532482 L95.8880002,34.6879967 C95.9306669,33.6106645 95.952,32.7520032 95.952,32.112 C95.952,30.4319916 95.8080014,28.7760082 95.52,27.144 C94.6559957,26.2799957 93.6000062,25.848 92.352,25.848 L92.2593215,27.2127655 C92.1291066,29.2450451 92.064,30.8541117 92.064,32.04 C92.064,32.7440035 92.1446659,33.7404111 92.3059998,35.0292485 L92.4337991,36.0372803 C92.571267,37.1791996 92.64,38.0547662 92.64,38.664 C92.64,39.1840026 92.5650008,39.9289964 92.4150004,40.898998 L92.316,41.508 C92.0999989,42.7800064 91.992,43.7519966 91.992,44.424 C91.992,45.1440036 92.087999,45.7679974 92.28,46.296 L92.7753618,46.4572806 C93.7987244,46.7817616 94.4975981,46.944 94.872,46.944 C95.3520024,46.944 95.8079978,46.8000014 96.24,46.512 Z M137.992,53.424 C137.992,56.1600137 136.98401,58.3679916 134.968,60.048 C133.916169,60.9245261 132.04405,61.9410918 129.351595,63.0977227 L127.768949,63.7668217 C125.080305,64.9272636 123.232005,65.9676476 122.224,66.888 C122.08847,67.0235301 121.740349,67.7330594 121.179627,69.0166079 L121.072,69.264 C120.639998,70.3200053 119.968005,70.848 119.056,70.848 C117.114657,70.848 114.694861,69.7575088 111.796545,67.576495 L111.46,67.32 C108.411985,64.9679882 105.88001,63.8399995 103.864,63.936 C103.047996,64.0320005 102.64,64.3439974 102.64,64.872 C102.64,65.080001 103.036583,65.3060259 103.829758,65.5500796 L104.224,65.664 C105.280005,65.9520014 105.808,66.4559964 105.808,67.176 C105.808,68.184005 105.400004,69.0479964 104.584,69.768 C103.767996,70.4880036 102.856005,70.848 101.848,70.848 C100.791995,70.848 99.7360053,70.2360061 98.68,69.012 C97.6239947,67.7879939 97.096,66.6240055 97.096,65.52 C97.096,62.7359861 98.1039899,60.840005 100.12,59.832 C101.416006,59.1599966 103.599985,58.8000002 106.672,58.752 L106.755709,58.6802491 C107.004844,58.4485543 107.552937,57.8244757 108.4,56.808 C109.072003,55.992 109.767996,55.584 110.488,55.584 C111.960007,55.584 113.905885,56.49872 116.325686,58.3281864 L116.644,58.572 C119.212013,60.56401 121.167993,61.56 122.512,61.56 C123.904007,61.56 125.055995,60.8880067 125.968,59.544 C126.784004,58.343994 127.192,57.0240072 127.192,55.584 C127.192,54.7199957 126.868003,53.9400035 126.22,53.244 C125.571997,52.5479965 124.816004,52.2 123.952,52.2 C122.463993,52.2 121.528002,52.6319957 121.144,53.496 C120.999999,54.3120041 120.844001,55.1399958 120.676,55.98 C120.507999,56.8200042 119.944005,57.24 118.984,57.24 C118.071995,57.24 116.176014,56.3280091 113.296,54.504 L112.739197,54.1475184 C110.230387,52.5227657 108.976,51.4416027 108.976,50.904 C108.976,50.9520002 109.299997,49.7880119 109.948,47.412 C110.5528,45.1943889 110.87536,43.300859 110.91568,41.7313613 L110.94592,39.628804 L110.94592,39.628804 L111.017562,36.2385768 C111.037444,34.9718308 111.028923,33.9323118 110.992,33.12 C110.944,31.5359921 110.824001,30.2160053 110.632,29.16 C110.536,28.7279978 110.068004,28.1280038 109.228,27.36 C108.387996,26.5919962 107.968,25.9200029 107.968,25.344 C107.968,24.5279959 108.207998,24.0480007 108.688,23.904 C110.019485,23.5366938 110.933745,22.3349816 111.430805,20.2988293 L111.496,20.016 C111.928002,17.9999899 112.575996,16.992 113.44,16.992 C114.132311,16.992 115.612326,17.8462814 117.880087,19.5548688 L118.156,19.764 C120.580012,21.6120092 121.792,22.8239971 121.792,23.4 C121.792,23.7360017 121.589877,24.4854323 121.185626,25.6483105 L121,26.172 C120.471997,27.6360073 120.208,28.871995 120.208,29.88 L120.211986,30.3648179 C120.229259,31.474632 120.302671,32.9703864 120.432221,34.8521074 L120.588679,37.0712845 C120.709592,38.8936262 120.774367,40.3300033 120.783003,41.380442 L120.784,41.616 C120.784,43.1040074 120.688001,44.4959935 120.496,45.792 C120.880002,46.1760019 121.479996,46.4159995 122.296,46.512 L123.741879,46.7706124 C123.991674,46.8176327 124.157714,46.8514285 124.24,46.872 C124.336,46.7759995 124.479999,45.1680156 124.672,42.048 L124.792,39.5199945 C124.856,38.0693286 124.888,37.0880026 124.888,36.576 L124.876234,31.1900674 C124.864674,29.3015331 124.844596,28.5288493 124.816,28.872 C124.383998,28.3439974 123.916003,27.7920029 123.412,27.216 C122.907997,26.6399971 122.656,26.0640029 122.656,25.488 C122.656,25.2479988 123.219994,24.4200071 124.348,23.004 C125.476006,21.5879929 126.04,20.0880079 126.04,18.504 C126.04,17.7839964 126.663994,17.424 127.912,17.424 C128.374859,17.424 129.786147,18.2608539 132.145902,19.9345858 L132.412,20.124 C134.932013,21.924009 136.192,23.0399978 136.192,23.472 C136.192,23.7254413 135.931804,24.8523937 135.411406,26.8528861 L135.184,27.72 C134.511997,30.2640127 134.176,32.2799926 134.176,33.768 L134.17899,34.3046381 C134.190948,35.4347152 134.238782,36.9055985 134.322491,38.7173104 L134.458,41.4850044 C134.558001,43.6283411 134.608,45.2799942 134.608,46.44 C136.864011,48.6000108 137.992,50.9279875 137.992,53.424 Z" transform="translate(221 30)"/>
  </g>
</svg>
